<svg xmlns="http://www.w3.org/2000/svg" width="18" height="18" viewBox="0 0 18 18">
    <g data-name="18">
        <g data-name="그룹 3222">
            <path data-name="패스 3862" d="M357.246 715.66a.548.548 0 0 0-.773 0l-.707.707 1.867 1.867.707-.707a.547.547 0 0 0 0-.773z" style="fill:#7b7b7b" transform="translate(-342.5 -706.501)"/>
            <path data-name="패스 3863" d="M351.66 720.472a.545.545 0 0 0-.16.387v1.094a.547.547 0 0 0 .547.547h1.094a.547.547 0 0 0 .387-.16l3.331-3.333-1.867-1.867z" style="fill:#7b7b7b" transform="translate(-342.5 -706.501)"/>
        </g>
        <path data-name="빼기 876" d="M21623.5 3680h-3.377a1.615 1.615 0 0 1-1.623-1.6v-12.8a1.615 1.615 0 0 1 1.623-1.6h7.922c1.029 1.013 1.277 1.25 1.537 1.5l.014.011c.256.243.549.519 1.9 1.854V3670h-1v-2.221c-1.115-1.1-1.363-1.33-1.6-1.553l-.08-.077a58.188 58.188 0 0 1-1.184-1.15h-7.51a.614.614 0 0 0-.625.6v12.8a.614.614 0 0 0 .625.6h3.377v1z" transform="translate(-21616.5 -3663)" style="fill:#7b7b7b"/>
        <path data-name="패스 14005" d="M266.156 203.5a1.193 1.193 0 0 1-.8-.3 1.162 1.162 0 0 1-.355-.891V200a.5.5 0 1 1 1 0v2.31a.138.138 0 0 0 .151.19h2.348a.5.5 0 0 1 0 1h-2.344z" transform="translate(-254.5 -198)" style="fill:#7b7b7b"/>
        <path data-name="합치기 1502" d="M21679 3669a.5.5 0 0 1 0-1h2a.5.5 0 0 1 0 1zm0-2a.5.5 0 1 1 0-1h4a.5.5 0 0 1 0 1zm0-2a.5.5 0 0 1 0-1h6a.5.5 0 0 1 0 1z" transform="translate(-21673.5 -3657)" style="fill:#7b7b7b"/>
    </g>
</svg>
